<svg xmlns="http://www.w3.org/2000/svg" version="1.0" viewBox="0 0 2188 704"><g stroke-width="0"><path d="M547 352v176h1094V176H547zm162.3-81.5 4.7 2.4 3.6-2.1c4.6-2.7 11.7-3.8 16.2-2.6 7 1.9 15.9 12.8 21.5 26.2 1.6 3.9 3.2 7.5 3.6 7.9s5.5 1.8 11.3 3.2c10.6 2.3 19.3 5.9 21.8 9 .7.8 1.3 3 1.2 4.7-.2 5.9-7.8 11-21.6 14.5l-6.2 1.5 2 4.2c1.5 3 2.1 6 2.1 11.6-.1 9.5-3 16.3-8.1 18.8-2.6 1.2-3.7 2.6-5 6.4-.8 2.6-3.7 8.1-6.3 12.1-20.9 32-59 28.7-76.1-6.6-2.2-4.6-4-8.8-4-9.3s-1.5-1.6-3.3-2.4c-7.4-3.4-10.8-17.9-7-29.3l2-5.7-2.6-.6c-11.5-2.5-21.5-7.3-23.6-11.4-2.2-4.2-1.9-5.8 1.8-9.5 3.4-3.4 13.4-7.1 26.1-9.6 4.4-.8 6-1.6 6.4-3.1 1-4.1 8.1-17.5 11.7-22.3 8.7-11.5 16.2-13.7 27.8-8m214.1 80.7c13.2 31.5 25.9 61.9 28.2 67.5l4.3 10.3h-26.4l-3.5-9.3-3.5-9.2-23.7-.3-23.6-.2-3.3 9.5-3.4 9.5h-13.2c-7.3 0-13.3-.3-13.3-.8-.1-1.9 55.6-134.2 56.5-134.2.6 0 11.8 25.8 24.9 57.2m248.6-44.7V319h-27v-25h27zm93.6 19.1c21.4 25.3 27 31.3 27.9 30.2.7-.7 12.6-14.8 26.5-31.3s25.8-30.1 26.6-30.3c1.2-.3 1.4 10 1.4 67.2V429h-24.1l.3-39c.2-21.5.3-39 .2-39s-1.7 2.4-3.6 5.2c-4.9 7.3-27.8 34-28.9 33.6-1.3-.5-26.2-29.9-28.8-34.1-1.2-2-2.4-3.7-2.5-3.7s0 17.3.2 38.5l.5 38.5H1237v-67.5c0-39.1.4-67.5.9-67.5s12.9 14.2 27.7 31.6m181.9-18.6v10.5l-22.2.3-22.3.2v30h36.1l-.3 10.2-.3 10.3-17.7.3-17.8.2v38h49v22h-73V296l34.3.2 34.2.3zm36.3-9.8c1 1.3 20.9 56.7 25.3 70.5 1.3 4 2.5 7.3 2.8 7.3.4 0 6.2-16.6 13-36.8s13-37.9 13.8-39.5l1.4-2.7h12.4c9.3 0 12.5.3 12.5 1.2 0 .7-11.7 30.8-25.9 66.8-20.6 52.3-26.2 65.5-27.6 65.5s-6.9-13-27.2-64c-13.9-35.2-25.6-65.2-26-66.8l-.5-2.7h12.5c8.7 0 12.8.4 13.5 1.2m-373 37 11.7.3v20l-11.7.3-11.8.3V377c0 12 .5 24.2 1.1 27 1.8 8.6 7.3 10.2 17.5 5 3.2-1.6 6.2-2.6 6.5-2.2.4.4 1.6 4.7 2.7 9.6l2 8.8-4.4 2c-11.1 4.9-27.2 5.8-35.2 2.1-4.1-2-9.5-8.1-11.2-13-.9-2.7-1.4-12-1.7-32.6l-.5-28.7H1064v-21h12.8l.7-9.9.7-9.8 10.1-4.4 10.2-4.4.3 14.2.3 14.2zm-85.3-1.1c6.6 1.8 12.1 6.7 15.8 13.9l3.2 6.5.3 37.7.3 37.8h-23.9l-.4-33.3c-.4-36.1-.7-38.7-6.2-42.2-7.1-4.7-17.2-1.6-21.3 6.5-2.2 4.3-2.3 5.2-2.3 36.7V429h-25v-95.1l11.3.3 11.2.3.5 6c.3 3.4.8 5.3 1.2 4.4 1.2-2.9 9.8-9.2 15.1-11 5.9-2.1 14.3-2.4 20.2-.8m145.5 48.4V429h-25v-95h25zm-494.7 10.3c2.3 3.2 11.6 16.7 20.7 30s16.7 24.1 17 24.1 9.5-13.2 20.5-29.4 20.6-29.7 21.4-30c1.8-.7 26 7.2 28.4 9.3s2.2 2.7-2.4 7.7c-2.3 2.5-4 4.7-3.8 4.9.2.1 2.8 1.6 5.8 3.2 10.9 5.8 20.6 17.9 23.7 29.8 1.5 5.6 1.8 13.4.6 15.4-.7 1-20.3 1.2-94.8 1l-93.9-.3.1-8.5c.1-7.5.5-9.3 3.4-15.5 4-8.4 14-18.8 21.6-22.5l5.1-2.5-3.8-4.2c-6.5-7.1-5.6-8.4 10.2-13.9 6.8-2.3 13.2-4.3 14.2-4.3 1-.1 3.5 2.3 6 5.7"/><path d="M690.7 281.2c-2.9 3-6.5 8.2-8.1 11.6-2.9 6.1-2.9 6.2-1 7.7 10.7 8 53.8 8.3 63.9.3l2.5-2-3.7-7.1c-4.7-9-11-15.7-14.6-15.7-3.8 0-7.6 1.7-11.4 5-1.9 1.7-3.7 3-4.2 3-.4 0-2.8-1.6-5.4-3.6-2.9-2.3-6.1-3.8-8.7-4.1-4-.6-4.4-.4-9.3 4.9"/><path d="M675.5 311.7c-1 5.4-2.3 7.3-4.9 7.3-2.7 0-4.2-1.5-4.8-4.6l-.3-2.1-8.5 2.2c-10.6 2.7-14.7 4.7-12.8 6.2 2.1 1.8 14.5 5.2 24.8 6.8 38.9 6.1 99.9 2.2 114.9-7.4 1.6-1.1-6-4.1-16.1-6.4-5.3-1.2-6.5-1.2-6.1-.2.8 2.3-1.6 5.5-4.2 5.5-2.8 0-3.6-1-5.1-6.5-.6-2.2-1.5-3.9-2-3.7-.5.1-4.3 1.4-8.4 2.9-7.3 2.7-8.1 2.8-28 2.8-19.6 0-20.8-.1-27.5-2.6-3.8-1.4-7.7-2.9-8.6-3.3-1.3-.6-1.8.1-2.4 3.1m-3.4 26.8c-3.6 2-5 5.3-5.1 11.6 0 8.3 1.5 11.7 5.3 12.1 2.9.3 3.3.8 5.8 7.5 5.2 14.3 12.8 23.9 22.6 28.9 7.8 3.9 18.3 4.1 25.7.5 9.3-4.6 20.6-19.1 23-29.6 1.1-4.8 3.4-7.5 6.2-7.5 1.9 0 2.8-.8 4-3.5 3-7.2.8-19.5-3.5-19.5-1.2 0-2.1-.5-2.1-1 0-.6-1-1-2.2-1-2.2 0-2.3.3-2 6.7.4 8.4-2.4 14.6-7.8 17.5-5.3 2.9-15 2-22.4-2l-5.6-3-5.6 3c-7.3 4-17.1 4.9-22.3 2.1-6.1-3.2-7.6-6.3-7.6-15.9 0-7.8-.2-8.4-2-8.3-1.1.1-3.1.7-4.4 1.4"/><path d="M690.5 339.7c-4.3.6-4.8 1.6-4.1 6.7.9 6 2.7 7.6 8.4 7.6 9.3-.1 16.3-5.4 14.8-11.3-.5-2-1.4-2.5-5.2-3.1-4.9-.6-8.8-.6-13.9.1m34-.3c-.5.2-2.2.7-3.7 1-2.2.5-2.8 1.2-2.8 3.2 0 3.8 1.7 6.2 6 8.4 4.1 2.1 12.4 2.7 14.9 1.1 1.5-1 3.2-10.4 2.1-12.1-.6-1-14.6-2.3-16.5-1.6m173.1 9.2c-.4 1.6-3.9 11.6-7.8 22.2s-6.8 19.5-6.6 19.8c.3.2 7.5.3 16.1.2l15.5-.3-5-13c-2.8-7.2-6.5-17.2-8.3-22.4-2.9-8.4-3.3-9-3.9-6.5m-237 49.6-5.8 2 7.3 7.4c5.6 5.7 8.5 7.8 12.4 9 6.7 2.2 7.5 3 7.5 7.4 0 3.5.4 4 7 8.4 3.8 2.5 7.2 4.6 7.4 4.6.3 0-5.9-9.2-13.6-20.5-7.8-11.3-14.6-20.5-15.2-20.4-.6 0-3.7 1-7 2.1m95.2 2.5c-1.9 2.7-7 10-11.3 16.3s-9.4 13.7-11.4 16.4l-3.5 4.9 7.7-5.2c6.8-4.5 7.7-5.5 7.7-8.2 0-4.8 1.5-6.4 7.8-8.4 5.1-1.5 7.1-2.9 13.2-9l7.2-7.2-6.3-2.2c-3.5-1.1-6.6-2.1-7-2.1s-2.3 2.1-4.1 4.7m-105.3 17c-11.4 5.8-19.2 14.9-22 25.7-.8 3.3-1.3 6.1-1.1 6.3.1.2 16.4.2 36.1.1l35.8-.3L688 442c-13.8-9.1-14-9.3-14-13.4 0-3-.3-3.3-5.3-4.9-3.3-1-6.6-3-8.7-5.2-1.9-1.9-3.6-3.5-3.9-3.5-.4.1-2.8 1.3-5.6 2.7m116.1 1.2c-2.3 2.4-5.5 4.4-8.2 5.1-4 1.1-4.3 1.5-4.6 4.9s-1 4-13.3 12.3l-12.9 8.8h72.7l-.6-4.1c-1.3-9.8-10.2-21.7-20.3-27-8.1-4.4-8.5-4.4-12.8 0"/></g><path fill="#004040" d="M1344.6 294.9c-.4.5.3.7 1.4.4 2.3-.6 2.6-1.3.6-1.3-.8 0-1.7.4-2 .9M1077.2 327c0 1.4.2 1.9.5 1.2.2-.6.2-1.8 0-2.5-.3-.6-.5-.1-.5 1.3m-56.4 5.7c.7.3 1.6.2 1.9-.1.4-.3-.2-.6-1.3-.5-1.1 0-1.4.3-.6.6m-43.6 2c9.7.3 10.7.5 11.1 2.3.4 1.6.4 1.6.3-.2-.1-2.2-.4-2.3-11.1-2.3l-11-.1zm89.5 0c1.8.2 5 .2 7 0 2.1-.2.7-.4-3.2-.4-3.8 0-5.5.2-3.8.4m44.5 0 10.7.4.4 9.4.3 9.5v-9.7l-.1-9.8h-11l-11-.1zm41.1 0c3.7.2 9.6.2 13 0s.4-.3-6.8-.3c-7.1 0-9.9.1-6.2.3m172 22.8c0 2.2.2 3 .4 1.7.2-1.2.2-3 0-4-.3-.9-.5.1-.4 2.3m-304.2 8.1c0 1.1.3 1.4.6.6.3-.7.2-1.6-.1-1.9-.3-.4-.6.2-.5 1.3m240.1 3.4c0 1.9.2 2.7.5 1.7.2-.9.2-2.5 0-3.5-.3-.9-.5-.1-.5 1.8m155.1 38.7c7.1.2 18.3.2 25 0 6.7-.1 1-.3-12.8-.3-13.7 0-19.2.2-12.2.3m94.4 21.5c.2.5 1 .8 1.8.8s1.6-.3 1.8-.8c.3-.4-.5-.7-1.8-.7s-2.1.3-1.8.7m-407.9 2.5c1.2.2 3.2.2 4.5 0 1.2-.2.2-.4-2.3-.4s-3.5.2-2.2.4"/><path fill="#404040" d="M746.5 300c-.3.6.1.7.9.4 1.8-.7 2.1-1.4.7-1.4-.6 0-1.3.4-1.6 1m-22.7 6.7c.7.3 1.6.2 1.9-.1.4-.3-.2-.6-1.3-.5-1.1 0-1.4.3-.6.6m37.5 6.8c-.3.9-.3 1.8-.1 2.1.3.3.8-.4 1.1-1.6.6-2.3-.1-2.7-1-.5M636 324.4c0 .2.8 1 1.8 1.7 1.5 1.3 1.6 1.2.3-.4s-2.1-2.1-2.1-1.3m105.8 5.3c.6.2 1.8.2 2.5 0 .6-.3.1-.5-1.3-.5s-1.9.2-1.2.5m-42.5 1c.9.2 2.5.2 3.5 0 .9-.3.1-.5-1.8-.5s-2.7.2-1.7.5m25.5 0c1.2.2 3.2.2 4.5 0 1.2-.2.2-.4-2.3-.4s-3.5.2-2.2.4m-34 9c.7.3 1.6.2 1.9-.1.4-.3-.2-.6-1.3-.5-1.1 0-1.4.3-.6.6m32 0c.7.3 1.6.2 1.9-.1.4-.3-.2-.6-1.3-.5-1.1 0-1.4.3-.6.6m18.4 5.3c0 1.4.2 1.9.5 1.2.2-.6.2-1.8 0-2.5-.3-.6-.5-.1-.5 1.3m-55.1 3.6c0 1.1.3 1.4.6.6.3-.7.2-1.6-.1-1.9-.3-.4-.6.2-.5 1.3m83 0c0 1.1.3 1.4.6.6.3-.7.2-1.6-.1-1.9-.3-.4-.6.2-.5 1.3m-103 2c0 1.1.3 1.4.6.6.3-.7.2-1.6-.1-1.9-.3-.4-.6.2-.5 1.3m103.1 2.4c0 1.4.2 1.9.5 1.2.2-.6.2-1.8 0-2.5-.3-.6-.5-.1-.5 1.3m-75.4 1.7c.6.2 1.8.2 2.5 0 .6-.3.1-.5-1.3-.5s-1.9.2-1.2.5m38.5 0c.9.2 2.3.2 3 0 .6-.3-.1-.5-1.8-.5-1.6 0-2.2.2-1.2.5m24.5 32c.7.3 1.6.2 1.9-.1.4-.3-.2-.6-1.3-.5-1.1 0-1.4.3-.6.6M654 400.3c0 .1 3.5 3.6 7.8 7.7l7.7 7.5-7.5-7.8c-6.9-7.1-8-8.2-8-7.4m-7.5 4.7c2.1 2.2 4.1 4 4.4 4s-1.3-1.8-3.4-4-4.1-4-4.4-4 1.3 1.8 3.4 4m65.8 5.7c.9.2 2.3.2 3 0 .6-.3-.1-.5-1.8-.5-1.6 0-2.2.2-1.2.5m-52.3 7.8c1.9 1.9 3.6 3.5 3.9 3.5s-1-1.6-2.9-3.5-3.6-3.5-3.9-3.5 1 1.6 2.9 3.5"/><path fill="#BFBFBF" d="m685.9 273.7-2.4 2.8 2.8-2.4c1.5-1.4 2.7-2.6 2.7-2.8 0-.8-.8-.1-3.1 2.4m26.9 34c.6.2 1.8.2 2.5 0 .6-.3.1-.5-1.3-.5s-1.9.2-1.2.5m-10 7c.7.3 1.6.2 1.9-.1.4-.3-.2-.6-1.3-.5-1.1 0-1.4.3-.6.6m20 0c.6.2 1.8.2 2.5 0 .6-.3.1-.5-1.3-.5s-1.9.2-1.2.5m24 15c.7.3 1.6.2 1.9-.1.4-.3-.2-.6-1.3-.5-1.1 0-1.4.3-.6.6m-57 1c.6.2 1.8.2 2.5 0 .6-.3.1-.5-1.3-.5s-1.9.2-1.2.5m45 0c.6.2 1.8.2 2.5 0 .6-.3.1-.5-1.3-.5s-1.9.2-1.2.5m17.2 6c.8.3 2.2 1.1 3 1.7 1.3 1 1.3.9.1-.7-.7-.9-2.1-1.7-3-1.6-1.3 0-1.4.1-.1.6m-2.7 6.3c0 2.5.2 3.5.4 2.2.2-1.2.2-3.2 0-4.5-.2-1.2-.4-.2-.4 2.3m-71.2 5.6c0 1.1.3 1.4.6.6.3-.7.2-1.6-.1-1.9-.3-.4-.6.2-.5 1.3m83 0c0 1.1.3 1.4.6.6.3-.7.2-1.6-.1-1.9-.3-.4-.6.2-.5 1.3m-103 2c0 1.1.3 1.4.6.6.3-.7.2-1.6-.1-1.9-.3-.4-.6.2-.5 1.3m103.1 2.4c0 1.4.2 1.9.5 1.2.2-.6.2-1.8 0-2.5-.3-.6-.5-.1-.5 1.3m-67.4 9.7c.7.3 1.6.2 1.9-.1.4-.3-.2-.6-1.3-.5-1.1 0-1.4.3-.6.6m39 0c.6.2 1.8.2 2.5 0 .6-.3.1-.5-1.3-.5s-1.9.2-1.2.5m46.7 42.5-4 4.3 4.3-4c2.3-2.1 4.2-4 4.2-4.2 0-.8-.9 0-4.5 3.9m-67.7-2.5c.7.3 1.6.2 1.9-.1.4-.3-.2-.6-1.3-.5-1.1 0-1.4.3-.6.6m-5 7c.7.3 1.6.2 1.9-.1.4-.3-.2-.6-1.3-.5-1.1 0-1.4.3-.6.6m60.1 8-3.4 3.8 4-3.5c2.2-1.9 4.2-3.6 4.4-3.8.2-.1 0-.2-.5-.2-.6 0-2.6 1.7-4.5 3.7m30.1 5.7c0 .2.8 1 1.8 1.7 1.5 1.3 1.6 1.2.3-.4s-2.1-2.1-2.1-1.3m-7.5 2.6c1 1.1 2 2 2.3 2s-.3-.9-1.3-2-2-2-2.3-2 .3.9 1.3 2m-115.3 2c0 1.9.2 2.7.5 1.7.2-.9.2-2.5 0-3.5-.3-.9-.5-.1-.5 1.8m134 22c0 1.4.2 1.9.5 1.2.2-.6.2-1.8 0-2.5-.3-.6-.5-.1-.5 1.3m-163.4 7.7c12.8.2 33.5.2 46 0 12.5-.1 2-.2-23.3-.2s-35.5.1-22.7.2m93 0c12.8.2 33.5.2 46 0 12.5-.1 2-.2-23.3-.2s-35.5.1-22.7.2"/><g fill="#FFF" stroke-width="0"><path d="M692.5 269.4c-6.9 3-19.4 21-22 31.6-.5 2.3-1.6 2.7-11.3 4.8-16.8 3.7-24.2 7.7-24.2 13.3s9.1 11.3 22.8 14.2c4.1.9 5.1 1.5 4.6 2.7-3 6.9-3.6 10-3.2 17.1.5 8.9 2.8 13.7 7.5 15.9 2.5 1.2 3.7 2.8 5.4 7.3 5 13.2 15 24.5 26.7 30 5.9 2.8 7.7 3.2 15.2 3.2 7.2 0 9.4-.5 14.4-2.8 11.7-5.4 20.2-14.6 26.1-28.3 2.6-5.9 4-8 6.2-8.9 1.6-.7 3.9-3.1 5.3-5.6 2.1-3.7 2.5-5.7 2.5-12.9 0-6.3-.5-9.5-1.9-12.3-1-2.1-1.7-3.9-1.5-4.1s3.5-1.1 7.2-2c9-2.2 15.2-5.2 18.2-8.8 6.4-7.6-.5-13.3-21.8-18l-10.5-2.3-3.1-7.6c-6.1-15-15.5-26.1-23-27.5-4.2-.8-11.3.9-15.1 3.6-2.6 1.9-2.6 1.9-8.5-1.1-6.3-3.1-11.2-3.6-16-1.5m12 7.5c2.2 1 4.9 2.8 5.9 4 2.6 2.9 4.1 2.7 8.9-1.4 9.5-8.2 17.2-4.5 26.3 12.8 3.4 6.5 3.5 6.9 1.7 8.3-11.6 8.9-54.6 8.9-66.7.1-1.7-1.3-1.6-1.7 1.8-8.5 4.4-8.7 12.1-17.2 15.7-17.2 1.3 0 4.2.9 6.4 1.9m50.9 40.9c2.3 2.3 5.9-.3 5.4-3.8l-.4-2.7 6 1.4c9 2 18.6 5.3 18.6 6.4 0 2.7-12.9 7-28.5 9.5-13.7 2.2-56.5 3-72.1 1.4-20.5-2-42.4-7.2-42.4-10 0-1.5 5.6-4 13.7-6.1 10-2.5 11.3-2.5 11.3.5 0 6.2 6.4 5.3 7.5-1.2.9-5.3 2-6.9 3.8-5.4 2.7 2.3 12.7 5.1 22.4 6.2 16.8 2.1 38-.4 46.8-5.3l4-2.3 1.3 5.1c.7 2.7 1.9 5.6 2.6 6.3M677.8 337c.4 0 .7 3.3.8 7.3.1 8.4 2 12.9 6.7 15.7 5.9 3.6 18.4 2.2 25.7-3l2.9-2 3.6 2.5c7.1 4.8 18.2 6 24.5 2.7 5.2-2.8 7.1-7.2 6.8-15.9-.3-6.9-.2-7.2 2.1-7.8 1.4-.4 3 0 4 1 1 .8 2.2 1.5 2.8 1.5 1.9 0 3.8 6.4 3.8 12.6 0 6.3-2.5 11.9-4.8 11.1-2.5-.9-4.6 1.5-6.6 7.5-7.7 22.9-25.5 35.9-43.1 31.4-13.6-3.5-23.1-13.8-29.5-32.1-1.9-5.4-2.4-6-5.1-6.3-1.7-.2-3.5-1.2-4.3-2.4-1.9-3-2.6-12.9-1.2-17.1 1.3-3.7 6.5-7.9 8.9-7.1.8.2 1.7.4 2 .4m30.6 2.6c2.4.9 2.2 8.6-.3 10.8-2.8 2.5-8.9 4.5-13.8 4.6-6.1 0-8.3-2.4-8.3-9.4 0-3.4.5-5.6 1.3-5.9 1.8-.8 19.2-.8 21.1-.1m32 0c2.5 1 2.2 10.4-.4 13.2-3.4 3.7-14.9 2.3-20.1-2.4-2.2-2-2.7-9.9-.6-10.7 1.8-.8 19.2-.8 21.1-.1"/><path d="M656 391.4c-14.9 5.1-15.7 6.3-9.1 13l4 4.1-5.6 3c-12.3 6.4-22.5 19.5-25.2 32.3-1.3 6.4-1.4 11.9-.2 12.6.5.3 33 .6 72.3.6h93.4c18.5.1 22.3-.2 22.7-1.4.8-2.1-1-13.9-3-18.8-4.1-10.6-13.4-20.6-23.3-25.4l-5.9-2.9 4.7-4.8c3.8-3.9 4.5-5 3.6-6.5-1.3-2.1-25.2-10.5-27.9-9.7-1.2.3-9.9 12.1-22 30-11 16.2-20.3 29.3-20.7 29.2s-9.9-13.5-21-29.7c-14.3-20.7-20.9-29.6-22.3-29.7-1.1-.1-7.6 1.7-14.5 4.1m28.1 25.7c8.1 11.8 14.6 21.5 14.4 21.7s-3.9-2.1-8.4-5c-6.9-4.5-8.1-5.7-8.1-8.1 0-4.6-1.7-6.5-7.4-8.3-4.5-1.4-6.9-3.2-13.2-9.5-5.4-5.5-7.3-8-6.3-8.4 7.2-2.6 12.6-4.3 13.3-4.1.5.1 7.6 9.9 15.7 21.7m82.9-19.6c3 .9 5.8 2 6.2 2.4s-2.6 4-6.7 8.1c-6.3 6.2-8.6 7.9-13.8 9.6l-6.2 2.1-.3 4.4c-.3 4.3-.5 4.5-8.4 9.7-4.4 2.9-8.2 5.2-8.4 5-.3-.4 25.7-38.8 28.7-42.4.7-.8 1.7-1.3 2.3-1.1zm-97.2 25.9c4.8 1.6 5.2 2 5.2 4.9 0 1.8.4 3.7.8 4.3s5.7 4.4 11.7 8.4c6.1 4 11.4 7.7 11.9 8.1.6.5-15 .9-36.1.9h-37.1l1-4.3c2.7-12.1 11.7-23.4 22.9-28.7l6.3-2.9 4.1 3.8c2.3 2.1 6.5 4.6 9.3 5.5m107.7-6.2c11.8 5.7 21.3 17.7 23.2 29.2l.6 3.6h-74.7l12.9-8.8c12.5-8.3 13-8.9 13.5-12.6s.8-4 5.2-5.5c2.7-.9 6.4-3.3 8.5-5.4 2.1-2 3.9-3.7 4.1-3.7.1 0 3.2 1.4 6.7 3.2"/></g><path fill="gray" d="M739 271.3c0 .2 1.5 1.6 3.3 3.3l3.2 2.9-2.9-3.3c-2.8-3-3.6-3.7-3.6-2.9m-10.2 4.4c.7.3 1.6.2 1.9-.1.4-.3-.2-.6-1.3-.5-1.1 0-1.4.3-.6.6m-46.9 2c-1.3 1.6-1.2 1.7.4.4.9-.7 1.7-1.5 1.7-1.7 0-.8-.8-.3-2.1 1.3m8.5 2.5-2.9 3.3 3.3-2.9c1.7-1.7 3.2-3.1 3.2-3.3 0-.8-.8-.1-3.6 2.9m44.6-1.8c0 .2.8 1 1.8 1.7 1.5 1.3 1.6 1.2.3-.4s-2.1-2.1-2.1-1.3m-25.5 2.6c1 1.1 2 2 2.3 2s-.3-.9-1.3-2-2-2-2.3-2 .3.9 1.3 2m-9.7 25.7c.6.2 1.8.2 2.5 0 .6-.3.1-.5-1.3-.5s-1.9.2-1.2.5m89.2 5.7c0 .2.8 1 1.8 1.7 1.5 1.3 1.6 1.2.3-.4s-2.1-2.1-2.1-1.3m-96.2 1.3c.7.3 1.6.2 1.9-.1.4-.3-.2-.6-1.3-.5-1.1 0-1.4.3-.6.6m7 1c.7.3 1.6.2 1.9-.1.4-.3-.2-.6-1.3-.5-1.1 0-1.4.3-.6.6m-27 14c.7.3 1.6.2 1.9-.1.4-.3-.2-.6-1.3-.5-1.1 0-1.4.3-.6.6m8 1c.6.2 1.8.2 2.5 0 .6-.3.1-.5-1.3-.5s-1.9.2-1.2.5m13.5 1c.9.2 2.3.2 3 0 .6-.3-.1-.5-1.8-.5-1.6 0-2.2.2-1.2.5m37.5 0c.7.3 1.6.2 1.9-.1.4-.3-.2-.6-1.3-.5-1.1 0-1.4.3-.6.6m-71.8 3.7c0 .2.7.7 1.6 1 .8.3 1.2.2.9-.4-.6-1-2.5-1.4-2.5-.6m48.6 14.3c-.6 1.4-.5 1.5.5.6.7-.7 1-1.5.7-1.8s-.9.2-1.2 1.2m32.5-.1c0 1.1.3 1.4.6.6.3-.7.2-1.6-.1-1.9-.3-.4-.6.2-.5 1.3m8.1.4c0 1.4.2 1.9.5 1.2.2-.6.2-1.8 0-2.5-.3-.6-.5-.1-.5 1.3m-31.2-.6c0 .2.8 1 1.8 1.7 1.5 1.3 1.6 1.2.3-.4s-2.1-2.1-2.1-1.3m-59.8 5.6c0 1.4.2 1.9.5 1.2.2-.6.2-1.8 0-2.5-.3-.6-.5-.1-.5 1.3m7.9-.4c0 1.1.3 1.4.6.6.3-.7.2-1.6-.1-1.9-.3-.4-.6.2-.5 1.3m22.9.4c.8.5 2.2.9 3 .9 1 0 .8-.3-.5-.9-2.7-1.2-4.3-1.2-2.5 0m-5.2 5.7c1.3 1.3 2.8 2.3 3.5 2.3s.3-.6-.8-1.2-2.7-1.6-3.5-2.2c-.9-.6-.5-.1.8 1.1m7 3c.7.3 1.6.2 1.9-.1.4-.3-.2-.6-1.3-.5-1.1 0-1.4.3-.6.6m39 0c.7.3 1.6.2 1.9-.1.4-.3-.2-.6-1.3-.5-1.1 0-1.4.3-.6.6m-67.8 3.7c0 .2.8 1 1.8 1.7 1.5 1.3 1.6 1.2.3-.4s-2.1-2.1-2.1-1.3m26 22.9c0 .2 1.5 1.6 3.3 3.3l3.2 2.9-2.9-3.3c-2.8-3-3.6-3.7-3.6-2.9m-5 6.2c1.3 1.4 2.6 2.5 2.8 2.5.3 0-.5-1.1-1.8-2.5s-2.6-2.5-2.8-2.5c-.3 0 .5 1.1 1.8 2.5m58.9 2.2-3.4 3.8 3.8-3.4c3.4-3.3 4.2-4.1 3.4-4.1-.2 0-1.9 1.7-3.8 3.7m30 2c.9.4-1.1 3-6 8.2l-7.4 7.6 7.7-7.4c7.1-6.9 8.5-9.2 5.5-9-.8 0-.7.3.2.6m-42.9 6.8c-1.4.8-2 1.4-1.4 1.5.5 0 1.9-.7 3-1.5 2.4-1.8 1.6-1.9-1.6 0m59 7.9c0 .2.8 1 1.8 1.7 1.5 1.3 1.6 1.2.3-.4s-2.1-2.1-2.1-1.3m-157.6 7.8-1.9 2.3 2.3-1.9c1.2-1.1 2.2-2.1 2.2-2.3 0-.8-.8-.2-2.6 1.9m114.8 2.8c0 1.9.2 2.7.5 1.7.2-.9.2-2.5 0-3.5-.3-.9-.5-.1-.5 1.8m-107.8 1.2-2.9 3.3 3.3-2.9c1.7-1.7 3.2-3.1 3.2-3.3 0-.8-.8-.1-3.6 2.9m115.8 1.8c0 1.9.2 2.7.5 1.7.2-.9.2-2.5 0-3.5-.3-.9-.5-.1-.5 1.8m-22.7 7.9c-.3.5-.2 1.2.3 1.5s.9-.1.9-.9c0-1.7-.3-1.9-1.2-.6m-103.4 9.7c0 1.1.3 1.4.6.6.3-.7.2-1.6-.1-1.9-.3-.4-.6.2-.5 1.3"/><path fill="#000040" d="M1395.8 296.7c9.4.2 25 .2 34.5 0 9.4-.1 1.7-.3-17.3-.3s-26.7.2-17.2.3m68.5 0c3.7.2 9.6.2 13 0s.4-.3-6.8-.3c-7.1 0-9.9.1-6.2.3m82 0c3.7.2 9.6.2 13 0s.4-.3-6.8-.3c-7.1 0-9.9.1-6.2.3m-132.5 21c6.1.2 16.3.2 22.5 0 6.1-.1 1.1-.3-11.3-.3s-17.4.2-11.2.3m-347 37c1.7.2 4.7.2 6.5 0 1.7-.2.3-.4-3.3-.4s-5 .2-3.2.4m38.5 0c3.1.2 8.3.2 11.5 0 3.1-.2.5-.3-5.8-.3s-8.9.1-5.7.3m305.9 14c4.8.2 12.9.2 18 0 5.1-.1 1.2-.3-8.7-.3s-14.1.2-9.3.3"/><path fill="#408080" d="M1145.4 306.5c0 7.1.1 9.9.3 6.2s.2-9.6 0-13-.3-.4-.3 6.8m-67.3 10.1c0 1.1.3 1.4.6.6.3-.7.2-1.6-.1-1.9-.3-.4-.6.2-.5 1.3m-62.3 16.1c.7.3 1.6.2 1.9-.1.4-.3-.2-.6-1.3-.5-1.1 0-1.4.3-.6.6m130.7 49v46.8h12l12 .1-11.7-.3-11.8-.4-.3-46.4-.2-46.5zM988.2 344c0 1.4.2 1.9.5 1.2.2-.6.2-1.8 0-2.5-.3-.6-.5-.1-.5 1.3m423 4.7c4.8.2 12.9.2 18 0 5.1-.1 1.2-.3-8.7-.3s-14.1.2-9.3.3m-396.2 4.7c0 .2.8 1 1.8 1.7 1.5 1.3 1.6 1.2.3-.4s-2.1-2.1-2.1-1.3m244.2 1.6c0 1.4.2 1.9.5 1.2.2-.6.2-1.8 0-2.5-.3-.6-.5-.1-.5 1.3m65 12c0 1.4.2 1.9.5 1.2.2-.6.2-1.8 0-2.5-.3-.6-.5-.1-.5 1.3m-433.9 24.7c4.8.2 12.5.2 17 0 4.5-.1.6-.3-8.8-.3-9.3 0-13 .2-8.2.3m185.8 8.9c0 1.1.3 1.4.6.6.3-.7.2-1.6-.1-1.9-.3-.4-.6.2-.5 1.3m-189.3 9.1c6.8.2 17.6.2 24 0 6.4-.1.9-.3-12.3-.3s-18.5.2-11.7.3m43.1 18.6c.4.4 6.4.6 13.2.5l12.4-.3-13.2-.5c-7.3-.3-12.9-.1-12.4.3m-81.6.4c3.7.2 9.7.2 13.5 0 3.7-.2.6-.3-6.8-.3s-10.5.1-6.7.3m124.5 0c3.4.2 8.8.2 12 0 3.1-.2.3-.3-6.3-.3s-9.2.1-5.7.3m54 0c3.4.2 9 .2 12.5 0 3.4-.2.6-.3-6.3-.3s-9.7.1-6.2.3m216 0c3.4.2 8.8.2 12 0 3.1-.2.3-.3-6.3-.3s-9.2.1-5.7.3m87 0c3.4.2 8.8.2 12 0 3.1-.2.3-.3-6.3-.3s-9.2.1-5.7.3m67 0c10 .2 26.4.2 36.5 0 10-.1 1.8-.2-18.3-.2s-28.3.1-18.2.2"/><path fill="#40BFBF" d="M1146 306.5V319h25v-25h-25zm-275.8 54.3c-15 36.1-27.2 66.1-27.2 66.5s5.7.6 12.6.5l12.6-.3 1.7-4.5c1-2.5 2.5-6.6 3.5-9.3l1.8-4.7 23.6.2 23.7.3 3.6 9 3.6 9 12.6.3 12.6.3-4.7-11.4C913.7 329 899.3 295 898.5 295c-.5 0-13.3 29.6-28.3 65.8m29.8-11.6c.7 2.3 4.3 12.2 8.1 22.1s6.9 18.6 6.9 19.3c0 1.1-3.1 1.4-16.5 1.4-9.1 0-16.5-.4-16.5-.9 0-.4 2.6-8 5.9-16.7 3.2-8.7 6.6-18.4 7.5-21.4 1-3 1.9-6.1 2.1-6.8.7-2.1 1.4-1.3 2.5 3m337 12.3V428h23.2l-.4-39c-.2-21.5-.2-39-.1-39s1.8 2.3 3.7 5.1c3.4 5.1 28.7 35.2 29.1 34.7.1-.2 5.6-6.6 12.2-14.4 6.6-7.7 13.8-16.6 15.8-19.7 2.1-3.2 3.9-5.7 4.1-5.7.1 0 0 17.5-.3 39l-.6 39h23.3v-66.6c0-42.5-.3-66.4-1-66.2-.5.1-12.7 14.2-27.1 31.3-14.3 17-26.2 31.1-26.3 31.2-.1.2-12.2-13.9-26.9-31.2S1238.5 295 1238 295c-.6 0-1 24.1-1 66.5m142 1V428h72v-20h-49v-40h36v-19l-17.7-.2-17.8-.3-.3-15.8-.3-15.7h46.1v-20h-69zm79.3-64.3c.3.7 11.9 29.9 25.7 64.8 13.9 34.9 25.4 64.1 25.7 64.7 1 2.5 3.1 1.2 4.8-3 .9-2.3 11.7-29.6 24-60.7s23.2-58.9 24.4-61.8l2.1-5.2h-25.5l-13.3 38.8c-7.3 21.3-13.2 39.3-13.2 39.9 0 2.5-1.8 1.2-2.3-1.6-.4-1.7-6.6-19.7-13.9-40l-13.2-37.1h-12.9c-9.9 0-12.8.3-12.4 1.2m-369.3 12c-5.2 2.2-9.7 4.2-9.9 4.4-.3.2-.7 4.8-1 10.2l-.6 9.7-6.7.3-6.8.3V354h12v20.2c.1 37.9 2.4 48.5 12 53.8 4 2.2 5.7 2.5 15 2.5 8.4 0 11.9-.5 17.2-2.3 3.7-1.3 7-2.7 7.3-3.2s-.5-4.9-1.7-9.8l-2.1-8.9-4.4 2.5c-5.9 3.3-10.8 4.3-14.5 3-5.3-1.9-5.8-4.8-5.8-32.8v-25h23v-19h-22.9l-.3-14.4-.3-14.4zm-84.6 24.4c-2.2.8-6.6 3.7-9.6 6.4-3.1 2.8-5.9 5-6.2 5s-.6-2.5-.6-5.5V335h-21v93h23v-62.6l2.5-5c5.5-11.1 20.9-12.9 26.2-3.1 1.6 2.8 1.8 6.9 2.1 36.9l.3 33.8h24.1l-.4-35.8c-.5-39.3-.8-41.8-6.8-50.1-4.6-6.3-11.3-9.1-21.5-9-4.4 0-9.8.7-12.1 1.5m142.6 46.9V428h24v-93h-24z"/><path fill="#4080BF" d="M1171.4 306.5c0 7.1.1 9.9.3 6.2s.2-9.6 0-13-.3-.4-.3 6.8"/><path fill="teal" d="M1347.5 361.5c0 36.8.1 51.8.2 33.2.2-18.6.2-48.8 0-67-.1-18.3-.2-3.1-.2 33.8m-381 20c0 25.8.1 36.6.2 23.8.2-12.7.2-33.9 0-47-.1-13.1-.2-2.7-.2 23.2m21.6-40.9c0 1.1.3 1.4.6.6.3-.7.2-1.6-.1-1.9-.3-.4-.6.2-.5 1.3m450.3 17.9c0 5.5.1 7.6.3 4.7s.2-7.4 0-10-.3-.2-.3 5.3m-179.3-6.9c0 1.1.3 1.4.6.6.3-.7.2-1.6-.1-1.9-.3-.4-.6.2-.5 1.3m65 12c0 1.1.3 1.4.6.6.3-.7.2-1.6-.1-1.9-.3-.4-.6.2-.5 1.3M990.4 398c0 16.8.2 23.6.3 15.2.2-8.3.2-22.1 0-30.5-.1-8.3-.3-1.5-.3 15.3m270-16.5c0 4.9.1 7.1.3 4.8s.2-6.4 0-9-.3-.8-.3 4.2m-.2 13c0 1.6.2 2.2.5 1.2.2-.9.2-2.3 0-3-.3-.6-.5.1-.5 1.8m.1 7c0 2.2.2 3 .4 1.7.2-1.2.2-3 0-4-.3-.9-.5.1-.4 2.3m-184.2 2.1c0 1.1.3 1.4.6.6.3-.7.2-1.6-.1-1.9-.3-.4-.6.2-.5 1.3m375.3 14.4c0 5.8.1 8.1.3 5.2.2-2.8.2-7.6 0-10.5-.2-2.8-.3-.5-.3 5.3m-191.1 0c0 3 .2 4.3.4 2.7.2-1.5.2-3.9 0-5.5-.2-1.5-.4-.2-.4 2.8"/><path fill="#004080" d="M1402.4 333c0 8.5.2 12 .3 7.7.2-4.2.2-11.2 0-15.5-.1-4.2-.3-.7-.3 7.8m0 55c0 10.7.2 15.1.3 9.7.2-5.3.2-14.1 0-19.5-.1-5.3-.3-.9-.3 9.8m-142.2 23c0 1.4.2 1.9.5 1.2.2-.6.2-1.8 0-2.5-.3-.6-.5-.1-.5 1.3"/></svg>